<?xml version="1.0" encoding="UTF-8"?>
<svg id="Layer_1" data-name="Layer 1" xmlns="http://www.w3.org/2000/svg" viewBox="0 0 1040 280">
  <defs>
    <style>
      .cls-1 {
        fill: #db2128;
      }

      .cls-1, .cls-2, .cls-3 {
        stroke-width: 0px;
      }

      .cls-2 {
        fill: #ed1c24;
      }

      .cls-3 {
        fill: #231f20;
      }
    </style>
  </defs>
  <g>
    <path class="cls-3" d="m114.54,243.48v-33.85c14.31,0,25.82-11.86,25.82-26.17v-11.51c-38.93,19.37-86.39-10.56-85.83-54.08-.67-43.46,47.22-73.57,85.83-54.08v-4.19h34.19v123.87c0,33.15-27.22,60.01-60.01,60.01Zm25.82-125.61c0-14.31-11.51-25.82-25.82-25.82-34.25,1.26-34.24,50.39,0,51.64,14.31,0,25.82-11.17,25.82-25.82Z"/>
    <path class="cls-3" d="m260.9,87.57l-12.53,24.23c-15.29-8.38-34.1,3.22-33.98,20.61v43.73h-27.29v-94.42h27.29v6.13c13.88-7.92,32.23-7.54,46.51-.28Z"/>
    <path class="cls-3" d="m353.93,129.62c0,26.46-21.45,47.91-47.91,47.91-63.55-2.52-63.53-93.3,0-95.81,26.46,0,47.9,21.45,47.9,47.91Zm-27.29,0c0-11.42-9.19-20.61-20.61-20.61-27.34,1-27.33,40.22,0,41.22,11.42,0,20.61-9.19,20.61-20.61Z"/>
    <path class="cls-3" d="m498.19,81.72v54.31c.19,34.55-41.13,52.69-66.57,30.08-25.45,22.62-66.76,4.46-66.57-30.08v-54.31h27.29v54.31c.36,17.01,25.27,17,25.62,0v-54.31h27.29v54.31c.58,17.13,25.4,16.84,25.9,0v-54.31h27.02Z"/>
    <path class="cls-3" d="m543.59,136.58c0,4.74.84,5.85,2.79,9.75,3.16,5.09,14.38,4.15,19.5,4.18l1.11-.28v27.29h-3.34c-27.02,0-47.07-12.25-47.07-40.94v-27.02h-7.24v-27.29h7.24v-30.08h27.02v30.08h24.23v27.29h-24.23v27.02Z"/>
    <path class="cls-3" d="m671.43,130.74v45.4h-27.02v-45.4c0-16.99-10.31-23.12-19.22-23.12-13.09,0-18.94,11.42-18.94,23.12v45.4h-27.29V50.24h27.29v34.26c33.47-14.09,65.86,10.71,65.17,46.23Z"/>
    <rect class="cls-3" x="682.56" y="81.72" width="27.29" height="94.42"/>
    <path class="cls-2" d="m682.84,63.33c0-7.52,6.13-13.65,13.65-13.65,18.11.77,18.1,26.53,0,27.29-7.52,0-13.65-6.13-13.65-13.65Z"/>
    <path class="cls-3" d="m806.22,176.13h-27.29c0-38.44-10.58-45.96-30.36-46.23v46.23h-27.29V51.08h27.29v51.8c5.01,0,25.07-1.67,25.07-21.17h27.02c0,13.37-4.73,25.35-13.93,33.98,16.71,15.6,19.5,38.71,19.5,60.44Z"/>
  </g>
  <g>
    <path class="cls-3" d="m965.51,132.66l-98.82,57.05c-11.11,6.41-25-1.6-25-14.43V61.17c0-12.83,13.89-20.85,25-14.43l98.82,57.05c11.11,6.42,11.11,22.45,0,28.87Z"/>
    <path class="cls-1" d="m950.33,162.53l-98.82,57.05c-11.11,6.41-25-1.6-25-14.43v-114.1c0-12.83,13.89-20.85,25-14.43l98.82,57.05c11.11,6.42,11.11,22.45,0,28.87Z"/>
  </g>
</svg>